<?xml version="1.0" encoding="UTF-8"?>
<svg fill="none" viewBox="0 0 195 24" xmlns="http://www.w3.org/2000/svg">
<g clip-path="url(#a)" fill="#fff">
<path d="m156.75 6.8404h0.734v-1.1284c0-3.549 2.233-3.6154 2.233-3.6154h1.105s0.765 0.00781 0.765 0.76135v17.32c0 0.7613-0.765 0.7613-0.765 0.7613h-0.957v0.734h6.767v-0.734h-0.961s-0.765 0-0.765-0.7613v-17.32c0-0.75744 0.765-0.76135 0.765-0.76135h1.105s2.229 0.06638 2.229 3.6154v1.1284h0.734v-5.4778h-12.985v5.4778h-4e-3z"/>
<path d="m191.4 1.1557c-1.589 0-2.878 1.2923-2.878 2.8775 0 1.5852 1.293 2.8775 2.878 2.8775s2.877-1.2923 2.877-2.8775c0-1.5852-1.292-2.8775-2.877-2.8775zm0 5.2513c-1.308 0-2.37-1.062-2.37-2.3699 0-1.308 1.062-2.3699 2.37-2.3699s2.37 1.062 2.37 2.3699c0 1.308-1.062 2.3699-2.37 2.3699zm1.214-1.2338c-0.012-0.04685-0.019-0.12103-0.023-0.22255l-0.012-0.37091c-8e-3 -0.1796-0.043-0.30454-0.105-0.38653-0.04-0.05076-0.094-0.09761-0.157-0.13665 0.082-0.05857 0.153-0.12885 0.203-0.21084 0.051-0.082 0.074-0.17179 0.074-0.27329 0-0.16789-0.059-0.30453-0.172-0.41776-0.114-0.11322-0.285-0.17179-0.516-0.17179h-0.758v2.1668h0.402v-0.9135h0.133c0.114 0 0.196 0.02343 0.246 0.06638 0.059 0.04685 0.09 0.14445 0.102 0.29671l0.023 0.3319c4e-3 0.04294 0.012 0.08978 0.027 0.13665 0.012 0.04294 0.023 0.07809 0.031 0.09761h0.508v-0.03901zm-0.93-1.2494h-0.328v-0.5583h0.352c0.106 0 0.18 0.01952 0.231 0.05857 0.047 0.03904 0.074 0.10151 0.074 0.1835 0 0.08978-0.027 0.15618-0.078 0.20303-0.047 0.04294-0.141 0.0663-0.25 0.06638z"/>
<path d="m3.9511 23.984c-0.38653-0.1093-0.81601-0.2382-1.2884-0.3866 0.04294-0.1093 0.02733-0.203-0.04686-0.2889-0.07418-0.0859-0.23035-0.1405-0.46852-0.1601-0.32406-0.1952-0.61688-0.4372-0.88628-0.7262-0.2694-0.2889-0.48805-0.5739-0.65984-0.855-0.17179-0.2772-0.30063-0.5154-0.38653-0.7106-0.15227-0.3241-0.21864-0.5193-0.21083-0.5974 0.011713-0.0741 0.13275-0.1679 0.37091-0.2733 0.23426-0.1718 0.41386-0.2264 0.53099-0.16 0.11713 0.0663 0.26159 0.2811 0.43338 0.6442 0.27721 0.4958 0.55051 0.882 0.81601 1.1635 0.2694 0.2812 0.57003 0.4881 0.90189 0.6208 0.13274 0.0429 0.23425 0.0117 0.30842-0.0977 0.07027-0.1093 0.03901-0.2499-0.09761-0.4255-0.38262-0.3241-0.67935-0.7535-0.89798-1.2885-0.21864-0.5349-0.31233-1.0347-0.28501-1.4992 0.02733-0.6755 0.12103-1.3216 0.28111-1.9366 0.16008-0.61502 0.38653-1.0581 0.67935-1.326 0.21864-0.21082 0.46851-0.27719 0.7574-0.1991 0.28892 0.0781 0.55441 0.2655 0.7965 0.56 0.28501 0.53099 0.48414 1.0542 0.59737 1.5695 0.11323 0.5154 0.11323 1.0737 0 1.6711-0.11323 0.5975-0.28892 1.1283-0.53489 1.5931-0.16789 0.2694-0.24206 0.4451-0.22254 0.5271 0.01954 0.0781 0.10542 0.1444 0.24987 0.1913 0.15618 0.0468 0.35139 0.0156 0.58957-0.0977 0.23816-0.1093 0.50753-0.2264 0.80817-0.3436 0.30063-0.1132 0.5779-0.1874 0.8316-0.2147 0.08975-0.1483 0.01953-0.3163-0.21083-0.5036-0.43338-0.3474-0.72624-0.8511-0.87457-1.5071-0.14837-0.656-0.17961-1.3236-0.09371-2.0029 0.0859-0.6755 0.28892-1.3001 0.60128-1.8701 0.31234-0.5701 0.68323-1.0307 1.1088-1.3861 0.42557-0.3553 0.85503-0.5701 1.2884-0.6481 0.36311-0.0742 0.76126-0.0547 1.1908 0.0664 0.32796 0.2147 0.66763 0.3904 1.0151 0.53099 0.34749 0.14055 0.66374 0.29672 0.94873 0.46853 0.20303 0.1171 0.29281 0.289 0.26549 0.5153-0.02734 0.2265-0.13665 0.3788-0.32796 0.4607-0.1718 0.0742-0.3865 0.0704-0.6481-0.0117-0.26549-0.082-0.57003-0.0781-0.91752 0.0117-0.34748 0.0899-0.67545 0.2459-0.97997 0.4841-0.30453 0.2381-0.55052 0.5193-0.74569 0.8394-0.19523 0.3202-0.28501 0.6599-0.27331 1.0112 0.01172 0.3553 0.17961 0.656 0.50362 0.9019 0.32406 0.2459 0.67935 0.4646 1.0659 0.6599 0.38262 0.1952 0.69106 0.4881 0.9214 0.8785 0.23426 0.3905 0.36311 0.9565 0.38262 1.7022 0.02342 0.7458-0.07809 1.2885-0.30452 1.628"/>
<path d="m18.878 21.244c-0.4529 0.3865-0.9722 0.613-1.5618 0.6755-0.5895 0.0663-1.1674-0.0274-1.7257-0.2733-0.5583-0.246-1.0229-0.6286-1.386-1.144-0.3671-0.4724-0.6013-1.0151-0.7106-1.6281-0.1094-0.613-0.1172-1.4134-0.0313-2.4012 0.0664-0.8394 0.3319-1.6828 0.8043-2.53 0.4725-0.8472 1.0464-1.6047 1.7257-2.2723 0.6755-0.6677 1.347-1.1284 2.0147-1.3861 0.324-0.2147 0.5974-0.31623 0.8238-0.30451 0.2265 0.01171 0.5739 0.03901 1.0464 0.08201 0.4958 0.0664 0.8667 0.1601 1.1127 0.2889s0.4099 0.3202 0.4958 0.5779c0.0859 0.2577 0.1172 0.5389 0.0977 0.8316-0.0234 0.2929-0.0859 0.5428-0.1835 0.7496-0.0977 0.2108-0.2655 0.3358-0.5036 0.3788-0.2304 0.0391-0.5505-0.0078-0.9566-0.1405-0.2773-0.1054-0.5076-0.125-0.695-0.0547-0.1874 0.0664-0.3788 0.1952-0.5739 0.3866-0.1953 0.1953-0.3866 0.4022-0.5739 0.6208-0.1835 0.2186-0.3514 0.4255-0.5036 0.6208-0.1523 0.1952-0.246 0.324-0.2811 0.3943-0.1718 0.4099-0.3006 0.8668-0.3866 1.3783-0.0899 0.5153-0.125 1.0464-0.1132 1.5969 0.0117 0.5505 0.1133 1.0621 0.3006 1.5383 0.1835 0.4763 0.4997 0.8707 0.9487 1.1908 0.3944 0.3045 0.7926 0.4372 1.1909 0.4022 0.3944-0.0351 0.7692-0.1757 1.1244-0.414 0.1718-0.3553 0.2264-0.6403 0.1757-0.8628-0.0547-0.2304-0.1679-0.3944-0.3475-0.4958-0.1796-0.1015-0.3826-0.1718-0.6012-0.2108-0.1172-0.1172-0.1835-0.2693-0.2031-0.4685-0.0195-0.199 0.0234-0.3866 0.125-0.57 0.1015-0.1796 0.3319-0.2772 0.695-0.2929 0.289-0.0117 0.5623 0.0156 0.8199 0.082 0.2578 0.0663 0.5037 0.1522 0.7302 0.2655 0.6794 0.3084 1.1283 0.7419 1.3469 1.3041 0.2186 0.5622 0.2616 1.1635 0.1289 1.7999"/>
<path d="m25.616 21.439c-0.1718 0.043-0.3982 0.0586-0.6754 0.0469-0.2811-0.0117-0.5232-0.043-0.7262-0.0976-0.203-0.0547-0.3046-0.1132-0.3046-0.1757 0-0.1054-0.0546-0.1601-0.16-0.1601-0.1953-0.1718-0.3866-0.3006-0.5818-0.3865-0.1952-0.3007-0.2889-0.6286-0.2889-0.9839s0.0976-0.9175 0.2889-1.6906c0.0664-0.5388 0.2733-1.1674 0.6286-1.8858s0.7887-1.4563 1.3041-2.2099c0.5153-0.7535 1.058-1.4289 1.6281-2.0302 0.57-0.6013 1.0893-1.0425 1.5617-1.3236 0.3006-0.3006 0.6677-0.4607 1.0971-0.48032 0.4334-0.01951 0.773 0.06247 1.0191 0.24596 0.2498 0.1835 0.3671 0.4177 0.3632 0.7028-4e-3 0.289-0.0586 0.5426-0.1601 0.7574-0.1054 0.4099-0.3788 0.8825-0.8199 1.4212-0.4412 0.5388-0.934 1.0659-1.4759 1.5735-0.5427 0.5076-1.0542 0.9838-1.5383 1.4329-0.4841 0.4491-0.8394 0.8082-1.058 1.0698-0.0469 0.3084-0.1054 0.6559-0.1757 1.062-0.0702 0.0351-0.0859 0.0937-0.0508 0.1835 0.035 0.0898 0.0742 0.1678 0.1171 0.2303 0.0429 0.0586 0.1015 0.1017 0.1679 0.125 0.0663 0.0195 0.1171 0.0195 0.1523 0 0.1757-0.043 0.5662-0.3084 1.1791-0.7965 0.6129-0.4881 1.2416-1.0581 1.8858-1.7139 0.6442-0.6519 1.2338-1.328 1.7608-2.0147 0.527-0.6873 0.9096-1.2963 1.1479-1.8271 0.2381-0.5311 0.2889-0.9292 0.1601-1.1987-0.0703-0.1718-0.1757-0.2772-0.3201-0.3163-0.1405-0.0429-0.2694 0.0547-0.3866 0.2929-0.1718 0.3397-0.5232 0.8472-1.062 1.5226-0.5388 0.6755-1.1713 1.3626-1.9054 2.0693-0.7341 0.7067-1.4641 1.3626-2.1786 1.9639-0.1757 0.1366-0.2577 0.2264-0.2499 0.2733 0.0078 0.0468 0.0429 0.0508 0.1093 0.0117 0.0664-0.043 0.1718-0.1015 0.316-0.1835 0.1445-0.082 0.3318-0.1835 0.5662-0.3084 0.3632-0.1718 0.8629-0.3631 1.4992-0.57 0.6325-0.2108 1.3236-0.3905 2.0693-0.5388 0.2186-0.0742 0.3671-0.1366 0.4412-0.1835 0.0742-0.0469 0.1015-0.0977 0.082-0.1523-0.0195-0.0507-0.082-0.1054-0.1913-0.1562-0.1094-0.0468-0.3006-0.082-0.5779-0.1054-0.2811-0.0234-0.6286-0.0195-1.0542 0.0117-0.4256 0.035-0.9096 0.1054-1.4524 0.2147-0.5427 0.1093-1.0972 0.2381-1.6593 0.3866-0.5584 0.1483-1.0856 0.3045-1.578 0.4724-0.4919 0.1718-0.9253 0.3436-1.3001 0.5154-0.3749 0.1757-0.6756 0.3436-0.9019 0.5037-0.2264 0.1601-0.3866 0.3084-0.4802 0.4412 0.023 0.9019 4e-3 1.5149-0.0586 1.8389-0.0586 0.3202-0.1405 0.4763-0.2499 0.4763-0.1094 0-0.227-0.1972-0.3554-0.5974-0.0664-0.1172-0.1211-0.1835-0.1641-0.1999-0.0429-0.0156-0.0977 0.0234-0.1679 0.1171-0.0702 0.0937-0.16 0.1952-0.2694 0.3084-0.1093 0.1094-0.2694 0.2186-0.4802 0.3241"/>
<path d="m35.608 21.244c-0.1953-0.1483-0.328-0.3006-0.4022-0.4529-0.0742-0.1483-0.082-0.4412-0.0156-0.8706 0.0664-0.6013 0.1484-1.1323 0.2577-1.5969 0.1054-0.4607 0.2342-0.9956 0.3865-1.5969 0.043-0.2577 0.1679-0.6989 0.3709-1.3236 0.2031-0.6247 0.4568-1.3001 0.7575-2.0302 0.3006-0.7301 0.6012-1.4251 0.9019-2.081 0.3006-0.656 0.5583-1.144 0.773-1.4681 0.1718-0.12884 0.3827-0.1835 0.6286-0.16008 0.246 0.02343 0.4568 0.11713 0.6286 0.28892 0.2382 0.19524 0.2733 0.53104 0.1133 1.0151-0.0234 0.0586-0.0781 0.199-0.1757 0.4217-0.0977 0.2265-0.2226 0.5036-0.3788 0.8395-0.1523 0.3358-0.3162 0.7067-0.4919 1.1127-0.1757 0.4061-0.3475 0.8121-0.5154 1.218-0.1718 0.4099-0.3241 0.7809-0.4568 1.1127-0.1328 0.332-0.2303 0.5935-0.2889 0.773-0.1718 0.4138-0.3006 0.8589-0.3866 1.3392-0.086 0.4842-0.1289 0.9644-0.1289 1.4446 0 0.3162 0.0547 0.5701 0.16 0.7574 0.1092 0.1874 0.2498 0.3084 0.4255 0.3671 0.1328 0.0469 0.246 0.0429 0.3397-0.0078 0.0898-0.0508 0.1913-0.1367 0.2968-0.2577 0.0976-0.121 0.1913-0.2811 0.281-0.4764 0.0898-0.1992 0.1795-0.421 0.2733-0.6754 0.2811-0.7613 0.5779-1.4992 0.8941-2.2135 0.3162-0.7144 0.617-1.4016 0.9023-2.0615 0.2811-0.6559 0.5428-1.265 0.7769-1.8233 0.2381-0.5583 0.43-1.0464 0.5815-1.4642 0.2811-0.6013 0.5427-1.1166 0.7847-1.5461 0.2422-0.4294 0.4607-0.7457 0.6559-0.9527 0.1953-0.2068 0.3866-0.31233 0.5779-0.31623 0.1953-0.00783 0.3826 0.1015 0.5739 0.32016 0.1718 0.18349 0.3006 0.40996 0.3866 0.67931 0.0899 0.2694 0.125 0.5232 0.1054 0.7692-0.0156 0.246-0.082 0.3788-0.1952 0.3944-0.1563 0.0234-0.274-0.0703-0.3554-0.2811-0.0859-0.2108-0.1991-0.3983-0.3397-0.5584-0.1406-0.16-0.2929-0.2616-0.4607-0.3006-0.1602-0.0429-0.3358-0.0117-0.5232 0.0938-0.3162 0.2264-0.6324 0.57-0.9487 1.031-0.3162 0.4607-0.6012 1.0073-0.8472 1.6399-0.129 0.3006-0.3866 0.9722-0.7691 2.0146-0.3866 1.0425-0.8199 2.2372-1.2963 3.5881-0.047 0.1288-0.1367 0.3827-0.274 0.7652-0.1367 0.3827-0.2929 0.7887-0.4647 1.2182-0.1757 0.4334-0.3553 0.8238-0.5388 1.1791-0.1796 0.3553-0.3631 0.6012-0.543 0.7379-0.1836 0.1366-0.3631 0.1444-0.543 0.0312"/>
<path d="m49.179 21.634c-0.4724 0-0.8277-0.0196-1.062-0.0664-0.2382-0.043-0.4178-0.1054-0.5466-0.1952-0.1289-0.0859-0.2811-0.2031-0.4529-0.3553-0.0859-0.1718-0.1952-0.3553-0.3241-0.5466-0.1288-0.1953-0.2381-0.3319-0.324-0.4178-0.0859-0.3241-0.125-0.7418-0.1133-1.2572 0.0118-0.5154 0.0742-1.0737 0.1953-1.675 0.1171-0.6012 0.285-1.1596 0.4997-1.6749 0.0859-0.1718 0.1952-0.4295 0.3241-0.7731 0-0.1054 0.1327-0.367 0.4021-0.773 0.2694-0.4061 0.5701-0.8395 0.9019-1.2885 0.3319-0.4529 0.6403-0.8745 0.9214-1.2572 0.2811-0.3827 0.5037-0.7145 0.6677-0.9956 0.2186-0.3837 0.3944-0.6872 0.5349-0.9097 0.1366-0.2225 0.246-0.38654 0.3241-0.49586 0.082-0.10932 0.164-0.16788 0.2499-0.17179 0.082-4e-3 0.1132 0.04295 0.0977 0.13665-0.0195 0.09762-0.0547 0.2069-0.1093 0.328-0.129 0.20694-0.3866 0.58566-0.773 1.139-0.3866 0.5544-0.8082 1.1714-1.2689 1.8546-0.4568 0.6873-0.9018 1.3744-1.3353 2.0693-0.4334 0.695-0.7692 1.3196-1.0073 1.8741-0.2382 0.5544-0.3085 0.9839-0.2108 1.2885 0.086 0.2498 0.2772 0.3866 0.5739 0.4099 0.2969 0.0195 0.6442-0.0273 1.0425-0.1366 0.4021-0.1132 0.8238-0.2577 1.2611-0.4373 0.4373-0.1756 0.8433-0.3788 1.2222-0.6051 0.3788-0.2264 0.6794-0.4529 0.9018-0.6794 0.4412-0.4685 0.8433-0.938 1.2025-1.4056 0.3593-0.4685 0.6911-0.8744 1.0034-1.2221 0.1718-0.2107 0.3591-0.3827 0.5622-0.5154 0.2029-0.1327 0.3866-0.2264 0.5584-0.2811 0.0859-0.0352 0.1404-0.0234 0.1601 0.035 0.0195 0.0586 0.0039 0.1406-0.0508 0.2499-0.0547 0.1093-0.1054 0.2265-0.1523 0.3514-0.0469 0.1249-0.0664 0.2225-0.0586 0.2889 0.2382-0.121 0.3905-0.2069 0.4607-0.2577 0.0742-0.0546 0.1367-0.0859 0.1835-0.0976 0.0469-0.0118 0.0938 0 0.1405 0.0352 0.0469 0.0429 0.1133 0.1132 0.1991 0.2147 0.0429 0.0625 0.0352 0.1288-0.0234 0.1991-0.0586 0.0702-0.1328 0.1366-0.2264 0.2069-0.0899 0.0663-0.1719 0.1366-0.246 0.203-0.0742 0.0664-0.1133 0.1211-0.1171 0.16-4e-3 0.0429 0.0078 0.0742 0.0352 0.0977 0.0273 0.0234 0.0586 0.0234 0.0976 0 0.3553-0.1834 0.6912-0.3944 1.0073-0.6325 0.3162-0.2381 0.6091-0.4763 0.8746-0.7145 0.2694-0.2382 0.5114-0.4646 0.7301-0.6794 0.2186-0.2147 0.3983-0.414 0.5426-0.5935 0.1523-0.2108 0.2538-0.3553 0.3046-0.4334 0.0508-0.0781 0.0977-0.1289 0.1445-0.1523 0.0469-0.0234 0.0899-0.0234 0.1328 0 0.0469 0.0234 0.0859 0.0664 0.1211 0.1288 0.035 0.0586 0.0469 0.1444 0.0351 0.2498-0.0117 0.1055-0.0703 0.2186-0.1718 0.3319-0.1015 0.1133-0.2616 0.2304-0.4841 0.3475-0.3201 0.3123-0.6559 0.6442-1.0073 0.9956-0.3514 0.3515-0.7106 0.6873-1.0815 1.0151-0.3671 0.3241-0.7341 0.6208-1.0971 0.8902-0.3632 0.2694-0.7029 0.5037-1.0191 0.7027-0.3123 0.1991-0.582 0.352-0.8082 0.4569-0.2264 0.1054-0.3709 0.164-0.4334 0.1757-0.1641 0.0351-0.332 0.0742-0.5076 0.1132-0.1757 0.035-0.3436 0.0664-0.5037 0.0937-0.1601 0.0273-0.3241 0.0429-0.496 0.043-0.1718 0-0.3358-0.0117-0.4958-0.0351"/>
<path d="m67.522 21.665c-0.4099 0.1093-0.7105 0.1445-0.9019 0.1132-0.1913-0.0312-0.4529-0.2108-0.773-0.531-0.1952-0.3006-0.367-0.57-0.5154-0.8043-0.1523-0.2381-0.246-0.6559-0.2889-1.2572-0.0234-0.4099 0.0039-0.855 0.082-1.3392 0.0742-0.4841 0.1015-0.8316 0.082-1.0463 0.1718-0.7965 0.242-1.4329 0.2108-1.9171-0.0312-0.4841-0.1015-0.7262-0.2108-0.7262-0.2382-0.0429-0.6599 0.1874-1.2729 0.695-0.6129 0.5037-1.3118 1.1596-2.0966 1.9678-0.7848 0.8043-1.5617 1.6515-2.3387 2.53-0.4099 0.5583-0.7614 0.9722-1.0581 1.238-0.2968 0.2654-0.5584 0.3944-0.7926 0.3827-0.2342-0.0118-0.4451-0.1562-0.6404-0.4294-0.1952-0.2733-0.3671-0.5856-0.5115-0.9331-0.0976-0.3006-0.1093-0.5779-0.0351-0.8394 0.0742-0.2616 0.1835-0.5271 0.328-0.8004 0.1405-0.2694 0.2811-0.5427 0.4216-0.8199 0.1406-0.2773 0.2147-0.5701 0.2264-0.8824 0.0117-0.4959 0.0508-0.9722 0.1171-1.4368 0.0664-0.4646 0.1484-0.9214 0.2577-1.3744 0.1093-0.453 0.2538-0.9097 0.4412-1.3744 0.1835-0.4646 0.4295-0.934 0.7301-1.4134 0.0625-0.1835 0.1952-0.3319 0.4022-0.4451 0.2069-0.1171 0.3788-0.1601 0.5193-0.13274 0.1718 0.0312 0.2967 0.10542 0.3827 0.22254 0.0859 0.11713 0.1366 0.25769 0.1523 0.42167 0.0156 0.16398 0 0.33577-0.0429 0.51537-0.0429 0.1835-0.0781 0.3475-0.1093 0.4958-0.1289 0.4335-0.3201 0.8707-0.5701 1.3158-0.2499 0.4451-0.4646 0.9214-0.6481 1.4251-0.1835 0.5076-0.3162 1.0346-0.3983 1.5831-0.0821 0.5466-0.0742 1.1284 0.0195 1.7374 0.0742 0.3592 0.1718 0.621 0.2889 0.7965 0.1132 0.1718 0.2303 0.2615 0.3476 0.2654 0.1171 4e-3 0.2655-0.0507 0.4451-0.1718 0.3475-0.2264 0.8119-0.6286 1.387-1.2025 0.5779-0.5779 1.1791-1.2299 1.8077-1.9679 0.6247-0.7379 1.2025-1.4916 1.7334-2.2644 0.5309-0.7731 0.9683-1.4993 1.3118-2.1864 0.3396-0.6873 0.5466-1.2689 0.621-1.7491 0.0351-0.2812-0.0234-0.4724-0.1757-0.5701-0.1522-0.0976-0.3436-0.125-0.5779-0.082-0.2343 0.0429-0.4685 0.1406-0.7028 0.2929-0.2342 0.1524-0.4333 0.3046-0.5894 0.4608-0.2811 0.2811-0.5701 0.5662-0.8707 0.8511-0.2968 0.2889-0.5583 0.5935-0.7809 0.9175-0.1757 0.2108-0.3202 0.324-0.4334 0.3397-0.1171 0.0156-0.2225-0.0586-0.3162-0.2264-0.0898-0.1679-0.1444-0.3827-0.1601-0.6364-0.0195-0.2499 0.0078-0.4881 0.082-0.7145 0.0703-0.2264 0.1835-0.3905 0.3358-0.4959 0.2811-0.1991 0.6286-0.4646 1.0425-0.7965 0.414-0.3319 0.8394-0.6442 1.2767-0.9409 0.4373-0.2929 0.8629-0.5271 1.2768-0.6989 0.414-0.1757 0.773-0.2538 1.0581-0.2343 0.5662 0.0468 0.9917 0.246 1.2807 0.5935 0.289 0.3475 0.4763 0.7613 0.5623 1.2455 0.082 0.4803 0.0858 0.9877 0.0195 1.5227-0.0665 0.5349-0.1562 1.0034-0.2733 1.4055-0.0586 0.1679-0.1952 0.4217-0.4099 0.7691-0.2147 0.3475-0.4646 0.7301-0.7535 1.1479-0.289 0.4217-0.6013 0.8551-0.9409 1.3041-0.3397 0.4489-0.6599 0.8629-0.9643 1.238-0.3045 0.3787-0.5661 0.7105-0.7848 1.001-0.2186 0.289-0.3671 0.4997-0.4451 0.6208-0.0586 0.1132-0.0938 0.2069-0.1054 0.2811-0.0117 0.0741 0 0.1444 0.0351 0.2069 0.0351 0.0625 0.0937 0.11327 0.1757 0.15228 0.082 0.039 0.1835 0.0742 0.3123 0.10542 0.1992 0.1015 0.4608 0.12493 0.7848 0.07809 0.3241-0.04685 0.667-0.14055 1.0268-0.2811 0.5974-0.2226 1.1635-0.5076 1.7021-0.8472 0.5348-0.3397 1.0073-0.7067 1.4055-1.1049 0.1054-0.1054 0.2655-0.3006 0.4841-0.5818 0.2186-0.2811 0.437-0.5779 0.6599-0.8903 0.2186-0.3124 0.4177-0.6168 0.5935-0.9097 0.1757-0.289 0.2889-0.535 0.3358-0.738 0.0468-0.1992 0.0664-0.3672 0.0546-0.5036-0.0117-0.1367-0.0117-0.2615 0-0.374 0.0156-0.1093 0.0547-0.2108 0.1211-0.2967 0.0663-0.0898 0.1757-0.16007 0.328-0.22255 0.0898-0.0273 0.1952-0.0234 0.3084 0.0195 0.1172 0.0429 0.2147 0.1054 0.2889 0.1991 0.0742 0.0937 0.1133 0.2031 0.1133 0.3319 0 0.1288-0.0664 0.2576-0.1991 0.3787-0.0898 0.0938-0.1562 0.2147-0.1953 0.3631-0.0429 0.1483-0.0781 0.3202-0.1054 0.5115-0.0273 0.1952-0.0625 0.3866-0.1055 0.582-0.0468 0.1991-0.1288 0.3943-0.2499 0.5935-0.2382 0.3944-0.5428 0.8082-0.9175 1.2377-0.3748 0.4295-0.7887 0.8354-1.238 1.2142-0.4529 0.3827-0.9097 0.7223-1.3705 1.0267-0.4607 0.3084-0.9058 0.5428-1.3236 0.7066"/>
</g>
<defs>
<clipPath id="a">
<rect width="194.28" height="24" fill="#fff"/>
</clipPath>
</defs>
</svg>